<?xml version="1.0" encoding="UTF-8"?>
<svg width="38px" height="52px" viewBox="0 0 38 52" version="1.1" xmlns="http://www.w3.org/2000/svg" xmlns:xlink="http://www.w3.org/1999/xlink">
    <!-- Generator: Sketch 61.2 (89653) - https://sketch.com -->
    <title>logo_firebase_192px_knockout copy</title>
    <desc>Created with Sketch.</desc>
    <g id="Page-1" stroke="none" stroke-width="1" fill="none" fill-rule="evenodd">
        <g id="Landing---Header" transform="translate(-230.000000, -842.000000)" fill="#FFFFFF" fill-rule="nonzero">
            <g id="Footer" transform="translate(0.000000, 823.000000)">
                <g id="logo_firebase_192px_knockout-copy" transform="translate(230.000000, 19.000000)">
                    <path d="M1.25489062,33.9573688 L6.42882812,0.999872613 C6.50743557,0.498009994 6.89945063,0.102259444 7.40254301,0.0168792517 C7.9056354,-0.068500941 8.40727958,0.175586017 8.6485625,0.623159798 L14.212,10.9524774 L1.25489062,33.9573688 Z M38,41.954317 L33.0739531,11.6219921 C33.0011681,11.1852526 32.688893,10.8257959 32.2651817,10.6910235 C31.8414705,10.5562511 31.3776093,10.6688374 31.0638125,10.9826145 L0,41.954317 L17.19025,51.5470503 C18.2681339,52.148873 19.5825543,52.1511099 20.6625,51.5529596 L38,41.954317 Z M24.0314375,15.4848497 L20.0515312,7.94320684 C19.8464142,7.55447338 19.4416216,7.31099809 19.0004453,7.31099809 C18.559269,7.31099809 18.1544764,7.55447338 17.9493594,7.94320684 L0.47025,38.9760699 L24.0314375,15.4848497 Z" id="Shape"></path>
                </g>
            </g>
        </g>
    </g>
</svg>